<svg xmlns="http://www.w3.org/2000/svg" viewBox="0 0 64 64" fill="none">
  <rect width="64" height="64" rx="14" fill="#0c0a09"/>
  <!-- Board outline -->
  <rect x="12" y="12" width="40" height="40" rx="3" stroke="#e4d3bf" stroke-width="2.5" fill="none"/>
  <!-- Traces -->
  <path d="M22 20 H42" stroke="#e4d3bf" stroke-width="1.75" stroke-linecap="round" opacity="0.85"/>
  <path d="M22 20 V32 H32" stroke="#e4d3bf" stroke-width="1.75" stroke-linecap="round" opacity="0.85"/>
  <path d="M42 20 V28 H48" stroke="#e4d3bf" stroke-width="1.75" stroke-linecap="round" opacity="0.7"/>
  <path d="M32 32 V44" stroke="#e4d3bf" stroke-width="1.75" stroke-linecap="round" opacity="0.85"/>
  <path d="M32 38 H42 V44" stroke="#e4d3bf" stroke-width="1.75" stroke-linecap="round" opacity="0.7"/>
  <path d="M16 44 H22" stroke="#e4d3bf" stroke-width="1.75" stroke-linecap="round" opacity="0.7"/>
  <path d="M22 44 V38" stroke="#e4d3bf" stroke-width="1.75" stroke-linecap="round" opacity="0.7"/>
  <!-- Pads / vias -->
  <circle cx="22" cy="20" r="2.25" fill="#e4d3bf"/>
  <circle cx="42" cy="20" r="2.25" fill="#e4d3bf"/>
  <circle cx="32" cy="32" r="2.25" fill="#e4d3bf"/>
  <circle cx="32" cy="44" r="2.25" fill="#e4d3bf"/>
  <circle cx="42" cy="44" r="2.25" fill="#e4d3bf"/>
  <circle cx="22" cy="38" r="2" fill="#e4d3bf" opacity="0.9"/>
  <!-- IC chip -->
  <rect x="26" y="24" width="12" height="10" rx="1.5" stroke="#e4d3bf" stroke-width="2" fill="#0c0a09"/>
  <path d="M29 24 V22" stroke="#e4d3bf" stroke-width="1.5" stroke-linecap="round"/>
  <path d="M32 24 V22" stroke="#e4d3bf" stroke-width="1.5" stroke-linecap="round"/>
  <path d="M35 24 V22" stroke="#e4d3bf" stroke-width="1.5" stroke-linecap="round"/>
  <path d="M29 34 V36" stroke="#e4d3bf" stroke-width="1.5" stroke-linecap="round"/>
  <path d="M32 34 V36" stroke="#e4d3bf" stroke-width="1.5" stroke-linecap="round"/>
  <path d="M35 34 V36" stroke="#e4d3bf" stroke-width="1.5" stroke-linecap="round"/>
</svg>
